<svg width="300" height="110" viewBox="0 0 300 110" fill="none" xmlns="http://www.w3.org/2000/svg">
<g clip-path="url(#clip0_2982_1050)">
<g clip-path="url(#clip1_2982_1050)">
<path fill-rule="evenodd" clip-rule="evenodd" d="M78.3226 53.605C81.6324 50.7021 83.8104 46.8594 83.8104 42.3648C83.8104 32.0597 75.8022 25.188 62.0708 25.188H28.6042C26.7068 25.188 25.1708 26.7275 25.1708 28.6238V81.2963C25.1708 83.195 26.7092 84.7321 28.6042 84.7321H64.3582C75.7333 84.7321 86.1002 79.0049 86.1002 67.5553C86.1002 61.0667 83.1613 56.4174 78.3226 53.605ZM41.1896 37.2134C41.1896 36.8969 41.444 36.6424 41.7602 36.6424H62.3585C66.063 36.6424 68.6524 38.9313 68.6524 42.3671C68.6524 45.803 66.3626 48.0919 62.3585 48.0919H41.7626C41.4464 48.0919 41.1896 47.835 41.1896 47.5185V37.2134ZM61.7879 73.2801H41.765C41.4487 73.2801 41.1919 73.0231 41.1919 72.7067V60.1126C41.1919 59.7961 41.4487 59.5392 41.765 59.5392H61.7879C67.1758 59.5392 70.9421 61.8305 70.9421 66.4108C70.9421 70.9911 67.6133 73.2801 61.7879 73.2801Z" fill="black"/>
<path fill-rule="evenodd" clip-rule="evenodd" d="M146.461 25.1908H117.508C108.177 25.1908 100.01 31.47 97.6061 40.4926L86.9681 80.4139C86.3879 82.5934 88.031 84.7349 90.2874 84.7349H99.758C101.313 84.7349 102.675 83.688 103.075 82.1842L105.945 71.4175C106.011 71.1676 106.237 70.994 106.496 70.994H133.305C133.622 70.994 133.876 71.2486 133.876 71.565V81.2991C133.876 83.1954 135.414 84.7349 137.309 84.7349H146.464C148.359 84.7349 149.895 83.1978 149.895 81.3014V28.6266C149.895 26.7303 148.356 25.1908 146.461 25.1908ZM133.874 58.9709C133.874 59.2874 133.619 59.542 133.303 59.542H109.851C109.476 59.542 109.202 59.1874 109.297 58.8234L113.397 43.4431C114.467 39.4314 118.095 36.6428 122.242 36.6428H133.303C133.619 36.6428 133.874 36.8974 133.874 37.2138V58.9709Z" fill="black"/>
<path fill-rule="evenodd" clip-rule="evenodd" d="M155.39 69.5497C155.39 73.5732 157.782 77.9536 162.33 80.8779C166.879 83.7736 171.323 84.7349 176.972 84.7349H191.022C200.614 84.7349 205.986 83.5761 209.928 80.5971C213.896 77.5896 215.882 73.1401 215.882 67.5962C215.882 57.1126 207.162 52.3967 187.796 48.7396C178.779 47.0359 170.369 46.2531 170.115 41.5395C169.972 38.8699 171.768 36.6214 177.165 36.6214H193.381C196.173 36.6214 198.137 37.29 199.732 39.5837C200.246 40.3237 200.467 41.5681 200.557 42.6935C200.667 44.095 201.822 45.18 203.227 45.18H211.642C213.342 45.18 214.721 43.8023 214.724 42.1011C214.724 41.6514 214.724 41.1493 214.724 40.5878C214.724 36.2288 212.158 31.8102 207.609 28.9145C203.089 25.9903 196.163 25.1908 190.514 25.1908H180.301C170.681 25.1908 165.245 26.5756 161.303 29.5831C157.361 32.5621 155.39 36.8236 155.39 42.3676C155.39 63.349 200.529 57.3577 200.529 68.6407C200.529 71.9885 196.929 73.2853 192.863 73.2853H176.594C172.478 73.2853 170.182 71.377 170.182 68.4956C170.182 68.4956 170.436 65.0003 166.72 65.0003H158.469C156.764 65.0003 155.385 66.3827 155.387 68.0887C155.387 68.5218 155.387 69.0095 155.387 69.552L155.39 69.5497Z" fill="black"/>
<path fill-rule="evenodd" clip-rule="evenodd" d="M274.619 28.6264V33.2068C274.619 35.1031 273.083 36.6426 271.185 36.6426H238.575C238.258 36.6426 238.002 36.8996 238.002 37.216V47.5211C238.002 47.8376 238.258 48.0946 238.575 48.0946H266.608C268.503 48.0946 270.042 49.6317 270.042 51.5304V56.1107C270.042 58.0071 268.506 59.5466 266.608 59.5466H238.575C238.258 59.5466 238.002 59.8035 238.002 60.12V72.7165C238.002 73.0329 238.258 73.2899 238.575 73.2899H271.185C273.08 73.2899 274.619 74.827 274.619 76.7257V81.306C274.619 83.2024 273.083 84.7419 271.185 84.7419H225.416C223.521 84.7419 221.983 83.2048 221.983 81.306V28.6336C221.983 26.7372 223.519 25.1978 225.416 25.1978H271.185C273.08 25.1978 274.619 26.7348 274.619 28.6336V28.6264Z" fill="black"/>
<path d="M271.185 0H28.6041C12.8065 0 0 12.8154 0 28.624V81.2988C0 97.1098 12.8065 109.925 28.6065 109.925H271.185C286.985 109.925 299.792 97.1098 299.792 81.2988V28.6264C299.792 12.8154 286.985 0 271.185 0ZM288.348 81.2964C288.348 90.7664 280.649 98.4708 271.183 98.4708H28.6041C19.1265 98.4708 11.4417 90.7807 11.4417 81.2964V28.624C11.4417 19.1398 19.1265 11.4496 28.6041 11.4496H271.185C280.651 11.4496 288.35 19.154 288.35 28.624V81.2964H288.348Z" fill="black" fill-opacity="0.36"/>
</g>
</g>
<defs>
<clipPath id="clip0_2982_1050">
<rect width="300" height="110" fill="white"/>
</clipPath>
<clipPath id="clip1_2982_1050">
<rect width="299.792" height="110" fill="white"/>
</clipPath>
</defs>
</svg>
