<?xml version="1.0" encoding="utf-8"?>
<!-- Generator: Adobe Illustrator 25.4.1, SVG Export Plug-In . SVG Version: 6.00 Build 0)  -->
<svg version="1.1" id="Layer_1" xmlns="http://www.w3.org/2000/svg" xmlns:xlink="http://www.w3.org/1999/xlink" x="0px" y="0px"
	 viewBox="0 0 387.4 72.3" style="enable-background:new 0 0 387.4 72.3;" xml:space="preserve">
<style type="text/css">
	.st0{fill:#284168;}
	.st1{fill:#00B7F1;}
	.st2{fill:#00ACE7;}
</style>
<g>
	<g>
		<path class="st0" d="M42.2,58.7c0.9-0.8,1.8-1.6,2.6-2.5c3.5-3.7,6.6-7.7,9.6-11.8c4.6-6.4,8.7-13,12.5-19.8
			c0.1-0.1,0.2-0.4,0.4-0.7c2.3,11.2,3.4,18.3,5.2,28c-11.1,2.2-19.2,4.8-30.3,7C42.3,58.9,42.2,58.8,42.2,58.7z"/>
		<path class="st1" d="M20.1,71.5c0.5-0.1,1-0.1,1.6-0.2c4-0.6,7.6-2,11-4c0.5-0.3,1-0.4,1.6-0.4c15.1,0,30.3,0,45.5,0
			c1.9,0,3.8,0,5.7-0.4C93,64.9,99,58.5,100,50.9c1.3-10.2-5.2-19-14.9-20.9c-0.9-0.1-1.7-0.2-2.7-0.4c-0.1,0.7-0.1,1.4-0.2,2.1
			c-0.4,3-1.4,5.8-3.3,8.3c-0.4,0.4-0.7,0.8-1.1,1.3c-0.1,0.1-0.1,0.1-0.2,0.1c0.1-1.1,0.3-2.1,0.4-3.1c0.6-4.3,0.9-8.7-0.1-13
			C75.2,15.2,69.1,8.3,58.6,5.8c-5.6-1.3-11-0.8-16.2,1.9c-5.2,2.8-9.2,6.7-11.5,12.3c-1,2.5-1.6,4.9-1.7,7.6
			c-0.1,0.9-0.1,1.9-0.1,2.8c-0.7-0.1-1.3-0.2-2-0.4c-3.4-0.5-6.8-0.4-10,0.9c-5.7,2.3-9.4,6.5-11.2,12.4C4.4,47.9,5,52.1,7,56.2
			c0.4,0.8,0.9,1.6,1.3,2.5c0.1,0.1,0.1,0.3,0.4,0.6c-0.2-0.1-0.3-0.1-0.3-0.1c-3.5-2.8-5.9-6.3-6.9-10.7C1,46,1.2,43.5,1.6,41
			c0.8-4.6,3.3-8,6.7-11c3.5-3,7.6-4.8,12.1-5.3c1.2-0.1,2.4-0.1,3.6-0.2c0.1,0,0.3,0,0.4-0.1c0.1-0.4,0.2-0.8,0.3-1.2
			c0.9-3.9,2.4-7.6,4.7-10.9c4.7-6.5,11.1-10.5,19-11.9c2.1-0.4,4.1-0.5,6.2-0.4c7,0.5,13.2,3,18.3,7.9c4.4,4.1,7.2,9.1,8.5,15
			c0.1,0.5,0.2,1,0.4,1.5c0.7,0.1,1.4,0.1,2.1,0.1c4.3,0.4,8.2,2,11.7,4.6c5.2,3.8,8.2,9,9.2,15.4c2.1,13.3-7.3,24.9-19.3,26.9
			c-1.6,0.3-3.2,0.4-4.8,0.4c-19.3,0-38.7,0-58.1,0c-0.9,0-1.8-0.1-2.6-0.2C20.2,71.6,20.2,71.5,20.1,71.5
			C20.1,71.5,20.1,71.5,20.1,71.5z"/>
		<path class="st0" d="M37.2,53.8c0.9-5,1.4-10,1.6-15.1c0.1-5-0.1-10-0.8-15.2c9.4,0,18.9,0,28.3,0c-0.1,0.1-0.1,0.2-0.2,0.4
			c-3.1,3.8-6.1,7.7-9.3,11.5C51.2,42.2,45,48.2,38,53.3C37.8,53.5,37.5,53.6,37.2,53.8z"/>
		<path class="st0" d="M65.1,26.6C65,26.8,65,27,64.8,27.1c-1,1.5-2.1,3-3.1,4.5c-1.9,2.8-3.7,5.5-5.5,8.3c-3.2,4.6-6.8,9-10.8,13
			c-4,4.3-8.5,8.2-13.3,11.5c-3.4,2.2-7.1,3.8-11.2,4.4c-2.5,0.4-5.1,0.2-7.6-0.3c-3.5-0.7-6.4-2.6-8.5-5.5
			c-2.1-2.7-3.6-5.7-4.4-9.1c-0.1-0.5-0.1-1-0.2-1.6c0.1,0,0.1-0.1,0.1-0.1c0.1,0.1,0.2,0.2,0.3,0.4c0.8,1.2,1.6,2.4,2.4,3.6
			c1.6,2.4,3.7,4.5,6.1,6.1c2.8,1.8,6,2.5,9.3,2.4c5.3-0.1,10.1-1.9,14.5-4.9c2-1.4,4.1-2.9,6.1-4.5c2.2-1.7,4.3-3.6,6.4-5.5
			c2.7-2.5,5.2-5.2,7.6-7.9c4.2-4.8,8.1-9.8,11.8-15c0.1-0.1,0.2-0.3,0.4-0.4C65,26.5,65,26.6,65.1,26.6z"/>
		<path class="st1" d="M345.7,47c-3.8,0-7.5,0-11.2,0c-0.3-0.5-0.6-1-0.8-1.5c-1.9-3.4-3.7-6.7-5.5-10.1c-0.5-0.9-1.1-1.7-1.7-2.5
			c-0.4-0.6-1.1-1-1.9-0.6c-0.9,0.3-1.3,0.8-1.3,1.9c0,4,0,7.9,0,11.8c0,0.3,0,0.7,0,1c-3.1,0-6.2,0-9.3,0c0-15.1,0-30.2,0-45.3
			c0.3,0,0.5-0.1,0.7-0.1c1.3,0,2.8,0,4.1,0c2.2-0.1,4.4,2.2,4.4,4.4c-0.1,5.8,0,11.7,0,17.5c0,0.3,0,0.6,0,0.9
			c0.1,0,0.1,0.1,0.1,0.1c3.7-4.2,7.3-8.5,10.9-12.7c5.6,0,11.2,0,16.9,0c2.3,8.1,4.6,16.2,7,24.5c0.1-0.4,0.2-0.7,0.3-0.9
			c1.9-6.8,3.9-13.6,5.8-20.4c0.7-2.3,1.9-3.2,4.3-3.2c1.8,0,3.7,0,5.5,0c0.3,0,0.5,0,0.9,0c-0.1,0.4-0.1,0.7-0.2,0.9
			c-4.3,13-8.7,25.9-13.1,38.8c-0.5,1.5-1.3,2.8-2,4.3c-1,1.9-2.8,3-4.9,3.4c-2.5,0.4-5.1,0.6-7.6,0.3c-0.4-0.1-0.7-0.1-1.1-0.1
			c0-2.4,0-4.8,0-7.3c0.4,0,0.7-0.1,1-0.1c1.1-0.1,2.2-0.1,3.4-0.2c0.1,0,0.1,0,0.2-0.1c2.5-0.7,3.4-2.2,2.5-4.6
			c-1.2-3.6-2.5-7.1-3.7-10.6c-2.3-6.7-4.7-13.4-7-20.1c-0.1-0.2-0.2-0.5-0.4-0.9c-3.1,3.3-6.1,6.5-9.1,9.8
			C337.3,32.6,341.4,39.7,345.7,47z"/>
		<path class="st2" d="M275.1,32.9c3.1,0,6.2,0,9.3,0c0.1,0.2,0.1,0.4,0.1,0.6c0.5,3.1,2.3,5.1,5.3,6c2.9,0.9,5.9,1,8.9,0.1
			c2-0.5,3.6-1.6,4-3.8c0.3-1.4,0-2.7-1-3.7c-1-0.9-2.1-1.6-3.4-2c-2.2-0.7-4.3-1.4-6.5-2c-2.9-0.9-6.1-1.3-8.9-2.5
			c-1.1-0.4-2.2-1-3.1-1.7c-1.7-1.1-2.5-2.9-3.2-4.7c-0.7-1.8-0.9-3.7-0.8-5.5c0.1-2.3,0.6-4.6,1.9-6.6c1.7-2.8,4.2-4.4,7.3-5.4
			c3.5-1.1,7.2-1.3,10.9-1c2,0.1,4,0.5,5.8,1.2c5,1.9,7.7,5.6,8.7,10.7c0.1,0.8,0.1,1.6,0.3,2.5c-0.2,0-0.4,0.1-0.5,0.1
			c-1.6,0-3.3,0-4.9,0c-1.9,0-3.4-0.8-4.2-2.5c-1.1-2.2-2.9-3.4-5.3-4c-2.2-0.4-4.3-0.4-6.5,0.1c-2,0.5-3.5,1.6-4,3.7
			c-0.4,1.7,0,3.1,1.5,4.1c1.4,1,3.1,1.6,4.9,2.1c3.7,1,7.4,1.9,11,3c1.7,0.5,3.4,1.2,4.9,2.2c2.3,1.6,3.7,3.8,4.3,6.5
			c0.7,2.9,0.4,5.8-0.5,8.6c-1.3,3.9-4.1,6.4-8,7.9c-2.4,0.9-4.8,1.3-7.3,1.3c-3.5,0.1-7,0-10.3-1c-6-1.8-9.9-6.6-10.4-12.8
			C275.3,33.8,275.2,33.4,275.1,32.9z"/>
		<path class="st0" d="M157,16.5c-0.1,0-0.1,0.1-0.2,0.1c-2,0-4.1,0-6.1-0.1c-1.6-0.1-2.8-1-3.7-2.5c-0.3-0.5-0.6-1-0.9-1.5
			c-1.1-1.8-2.7-2.8-4.7-3.3c-2.5-0.6-5.1-0.6-7.6,0.1c-3.5,1-5.8,3.3-7.2,6.7c-0.7,1.9-1,3.8-1.2,5.8c-0.2,2.8-0.1,5.6,0.5,8.4
			c0.4,1.8,1.1,3.4,2.1,4.9c1.6,2.4,3.8,3.8,6.7,4.3c2,0.4,4,0.4,6.1-0.1c3.6-0.9,5.7-3.2,6.8-6.7c0.1-0.4,0.2-0.7,0.4-1.1
			c0-0.1,0.1-0.1,0.1-0.1c3,0,6,0,9.1,0c-0.1,1.8-0.4,3.5-1,5.1c-1.9,5.4-5.5,8.8-10.9,10.5c-5,1.6-10.1,1.6-15.2,0.3
			c-6.3-1.6-10.4-5.8-12.6-11.8c-1-2.8-1.4-5.6-1.6-8.5c-0.2-3.6,0-7.2,0.7-10.7c1-4.9,3.3-9.1,7.4-12.1c2.5-1.9,5.4-2.9,8.5-3.4
			c4-0.7,7.9-0.7,11.8,0.3c4.3,1,7.9,3.1,10.3,7c1.6,2.5,2.4,5.3,2.6,8.3C157,16.3,157,16.4,157,16.5z"/>
		<path class="st0" d="M205.5,31.9c-7.6,0-15.1,0-22.8,0c0.1,0.7,0.1,1.3,0.1,1.9c0.2,1.3,0.6,2.5,1.4,3.7c1.4,2,3.4,2.6,5.8,2.5
			c0.7,0,1.6-0.2,2.3-0.4c1.1-0.3,2-0.9,2.8-1.9c0.8-1,1.9-1.6,3.2-1.6c2,0,4,0,6.1,0c0.2,0,0.4,0,0.7,0.1c-0.1,0.3-0.1,0.6-0.2,0.8
			c-1.6,5.2-5,8.5-10.2,10c-3.2,0.9-6.5,1-9.7,0.2c-5.3-1.2-8.7-4.6-10.5-9.7c-1.2-3.4-1.4-7.1-1.1-10.7c0.1-2.5,0.7-4.9,1.7-7.3
			c2.3-4.9,6.2-7.7,11.7-8.4c2.8-0.3,5.5-0.1,8.1,0.6c4.7,1.3,7.9,4.4,9.5,9c1.2,3.4,1.4,6.9,1.3,10.5
			C205.7,31.4,205.6,31.6,205.5,31.9z M182.7,25.8c4.4,0,8.8,0,13.2,0c0.3-2-0.9-4.9-2.7-5.9c-2.5-1.4-5-1.5-7.4,0
			C183.6,21.1,182.9,23.3,182.7,25.8z"/>
		<path class="st0" d="M218.1,21c-3,0-5.9,0-8.9,0c0.1-0.4,0.1-0.7,0.1-1c0.8-3.6,3-6,6.3-7.6c1.8-0.8,3.8-1.2,5.8-1.3
			c3.2-0.1,6.4,0,9.6,1c1,0.3,1.9,0.7,2.8,1.2c2.8,1.6,4.3,4.2,4.3,7.5c0.1,4.3,0.1,8.5,0,12.8c0,1.3-0.1,2.5-0.4,3.7
			c-1.1,4.9-4.1,7.9-8.7,9.4c-2.1,0.7-4.3,0.9-6.4,1c-2,0.1-4,0.1-5.9-0.3c-1.6-0.4-3.1-1-4.5-1.9c-1.7-1.1-2.8-2.7-3.4-4.6
			c-0.7-2.6-0.7-5.3-0.1-8c0.5-1.9,1.6-3.4,3.1-4.4c2.5-1.6,5.3-2.5,8.3-2.9c1.9-0.3,3.9-0.6,5.8-1c0.7-0.1,1.4-0.5,2.1-0.9
			c0.7-0.4,1.2-1.2,1.1-2.1c-0.1-1-0.6-1.8-1.6-2.1c-2.4-0.8-4.9-1-7.3-0.3C219.3,19.2,218.5,20,218.1,21z M229.4,29.4
			c-2.5,1.1-4.9,1.6-7.3,2.2c-0.8,0.1-1.6,0.4-2.4,0.7c-1.8,0.6-2.6,1.9-2.8,3.7c-0.1,1.9,0.7,4.1,3.5,4.4c0.8,0.1,1.7,0.1,2.6,0
			c3.1-0.3,5.6-2.5,6.1-5.6C229.3,33.1,229.3,31.4,229.4,29.4z"/>
		<path class="st0" d="M250.5,47c-3.1,0-6.2,0-9.3,0c0-0.4-0.1-0.7-0.1-1c0-6.8,0-13.6,0-20.4c0-2.8,0.4-5.4,1.6-7.9
			c0.7-1.4,1.7-2.5,3.1-3.4c3.4-2.2,7-3.3,11-3.3c3.7,0.1,7.3,1.1,10.4,3.2c2,1.3,3.1,3.4,3.8,5.7c0.6,2,0.8,4.1,0.8,6.2
			c0,6.6,0,13.2,0,19.8c0,0.3,0,0.6-0.1,1c-0.3,0-0.5,0.1-0.8,0.1c-1.3,0-2.5,0-3.8,0c-2.9-0.1-4.6-1.8-4.6-4.7c0-5.8,0-11.6,0-17.5
			c0-0.4,0-1-0.1-1.4c-0.2-2.1-1.4-3.5-3.4-4.3c-1.8-0.7-3.7-0.7-5.5,0.1c-2,0.9-3.1,2.5-3.1,4.6c0,0.3,0,0.7,0,1c0,7,0,14,0,21
			C250.5,46.2,250.5,46.6,250.5,47z"/>
		<path class="st0" d="M161.4,1.6c1.9,0,3.7-0.1,5.5,0c2.1,0.1,3.7,2.1,3.7,4.2c0,2.8,0,5.7,0,8.5c0,10.5,0,21,0,31.5
			c0,0.4,0,0.7,0,1.1c-3.1,0-6.1,0-9.3,0C161.4,31.9,161.4,16.8,161.4,1.6z"/>
		<path class="st0" d="M261.5,68.3c0.7,0.1,1.3,0.1,1.9,0.2c0.9,1.7,2.1,2.2,4,1.7c1.5-0.4,2-1.5,1.9-4c-0.1,0.1-0.4,0.1-0.5,0.3
			c-2.3,1.6-5.4,1-6.7-1.4c-1.3-2.3-1.3-4.8-0.1-7.2c1.3-2.8,5.2-3.3,7.2-1.3c0.1,0.1,0.1,0.1,0.3,0.2c0.1-0.4,0.1-0.7,0.1-1
			c0.6,0,1.2,0,1.9,0c0,0.3,0.1,0.5,0.1,0.8c0,3,0,5.9,0,8.9c0,0.8-0.1,1.6-0.1,2.5c-0.2,2.2-1.6,3.7-3.7,4.1
			c-1.1,0.2-2.3,0.2-3.4-0.1c-1.1-0.4-2.1-1-2.5-2.2C261.6,69.4,261.6,68.8,261.5,68.3z M263.2,61.4c0.1,0.8,0.2,1.6,0.4,2.4
			c0.4,1.1,1.2,1.8,2.4,1.9c1.3,0.1,2.4-0.4,2.9-1.6c0.8-1.7,0.8-3.5-0.1-5.2c-0.5-1.1-1.6-1.6-2.8-1.6c-1.3,0.1-2.1,0.8-2.5,1.9
			C263.4,59.9,263.3,60.7,263.2,61.4z"/>
		<path class="st0" d="M243.3,62.2c-3,0-5.8,0-8.6,0c-0.2,1.5,0.8,3.1,2.2,3.7c1.7,0.6,3,0,4.3-2.2c0.6,0.1,1.3,0.1,2,0.2
			c-0.4,1.7-1.4,2.9-3.1,3.5c-1.4,0.5-2.9,0.4-4.3-0.1c-1.6-0.6-2.6-1.7-3.1-3.4c-0.4-1.6-0.4-3.1,0-4.6c0.7-2.5,2.8-4,5.4-3.9
			c2.8,0.1,4.7,1.9,5,4.6C243.2,60.7,243.2,61.3,243.3,62.2z M241,60.4c-0.1-2.2-1.6-3.2-3.2-3.2c-1.8,0-3.2,1.5-3.1,3.2
			C236.7,60.4,238.8,60.4,241,60.4z"/>
		<path class="st0" d="M207.3,63.6c0.6,0.1,1.2,0.1,1.9,0.2c-0.1,1-0.7,1.9-1.4,2.5c-1.8,1.5-3.8,1.6-5.9,1c-2-0.7-3-2.2-3.4-4.3
			c-0.1-1.2-0.1-2.4,0.2-3.6c0.7-2.6,2.8-4,5.5-4c2.8,0.1,4.7,1.9,5,4.6c0.1,0.6,0.1,1.3,0.1,2c-3,0-5.8,0-8.6,0
			c-0.2,1.6,0.8,3.2,2.2,3.7C204.7,66.4,205.9,65.8,207.3,63.6z M207.1,60.4c0-1.8-1.3-3.2-3.1-3.2c-1.8,0-3.1,1.3-3.2,3.2
			C202.8,60.4,205,60.4,207.1,60.4z"/>
		<path class="st0" d="M283.2,64.6c1-3,2.1-5.9,3.1-8.8c0.7,0,1.3,0,2,0c-0.1,0.2-0.1,0.4-0.1,0.6c-1.5,4.1-3,8.2-4.6,12.4
			c-0.3,0.7-0.7,1.5-1.1,2.2c-0.9,1.3-2.3,1.6-3.9,1c-0.1-0.5-0.1-1.1-0.2-1.8c0.9,0,1.9,0.4,2.5-0.4c0.5-0.6,0.8-1.4,1.2-2.1
			c-1.5-4-3-7.8-4.5-11.8c0.7,0,1.4,0,2.2,0C281,58.6,282.1,61.6,283.2,64.6z"/>
		<path class="st0" d="M225.6,67.4c-0.7,0-1.3,0-2.1,0c0-0.4,0-0.7,0-1c0-2,0-4,0-6c0-0.3,0-0.7-0.1-1c-0.1-1.3-0.8-1.9-2-2.1
			c-1.2-0.1-2.5,0.5-2.9,1.6c-0.2,0.7-0.4,1.4-0.4,2.2c-0.1,1.8,0,3.6,0,5.4c0,0.3,0,0.6,0,1c-0.7,0-1.3,0-2,0c0-3.9,0-7.7,0-11.6
			c0.6,0,1.1,0,1.8,0c0,0.4,0.1,0.7,0.1,1.2c0.1-0.1,0.3-0.2,0.4-0.3c1.5-1.4,3.1-1.6,5-1c1.3,0.4,2.1,1.4,2.2,2.8
			C225.7,61.4,225.6,64.3,225.6,67.4z"/>
		<path class="st0" d="M250,55.7c0.3,0,0.6,0,0.9,0c0.3,0,0.5,0,0.9,0c0.1,0.4,0.1,0.8,0.1,1.3c0.6-0.9,1.3-1.6,2.3-1.6
			c0.7,0,1.4,0.1,2,0.7c-0.2,0.6-0.4,1.1-0.7,1.8c-0.3-0.1-0.5-0.1-0.7-0.2c-1.1-0.4-2.1,0.1-2.5,1.3c-0.2,0.7-0.3,1.5-0.4,2.2
			c-0.1,1.7,0,3.4,0,5.2c0,0.3,0,0.6,0,1c-0.7,0-1.3,0-2,0C250,63.5,250,59.7,250,55.7z"/>
	</g>
	<g>
		<g>
			<path class="st1" d="M383.3,19.9c-2.3,0-4.2-1.9-4.2-4.2s1.9-4.2,4.2-4.2c2.3,0,4.2,1.9,4.2,4.2S385.6,19.9,383.3,19.9z
				 M383.3,12.1c-2,0-3.7,1.6-3.7,3.7c0,2,1.6,3.7,3.7,3.7c2,0,3.7-1.6,3.7-3.7C386.9,13.7,385.3,12.1,383.3,12.1z"/>
		</g>
		<g>
			<path class="st1" d="M383.4,16.3h-0.9v1.7h-0.8v-4.4h1.5c0.5,0,0.9,0.1,1.2,0.3c0.3,0.2,0.4,0.6,0.4,1c0,0.3-0.1,0.5-0.2,0.7
				s-0.3,0.4-0.6,0.5l1,1.8v0h-0.8L383.4,16.3z M382.5,15.6h0.8c0.3,0,0.5-0.1,0.6-0.2c0.1-0.1,0.2-0.3,0.2-0.5
				c0-0.2-0.1-0.4-0.2-0.5c-0.1-0.1-0.3-0.2-0.6-0.2h-0.8V15.6z"/>
		</g>
	</g>
</g>
</svg>
