<svg width="465" height="131" viewBox="0 0 465 131" fill="none" xmlns="http://www.w3.org/2000/svg">
<path d="M67.6647 0.259857H31.7715V8.49225V19.8549H67.6647V0.259857Z" fill="#092D2E"/>
<path d="M66.1336 53.9479L31.7716 19.8549L0.286133 53.4549V96.8303H17.2372V129.356H33.3028V96.8303H66.1336V129.356H82.1943V96.8303H66.1923L66.1336 53.9479Z" fill="#092D2E"/>
<path d="M67.6647 19.8549H31.7715L66.1335 53.9479L66.1922 96.8303H82.1942H99.1502V52.469L67.6647 19.8549Z" fill="#2CAA7C"/>
<path d="M348.138 116.83V116.82C347.644 107.36 344.44 101.326 332.963 101.168L331.114 101.085V99.5415C338.99 99.2162 346.641 93.9859 346.641 84.8465C346.641 76.7176 341.02 70.1218 328.683 70.1218H297.31V129.356H313.087V107.769H323.247C330.126 107.769 332.063 110.392 332.308 116.83L332.983 129.361H348.843L348.163 116.83H348.138ZM323.409 94.5084H313.091V83.4317H323.59C328.369 83.4317 330.214 85.3887 330.214 88.8345C330.209 92.4725 328.11 94.5084 323.409 94.5084Z" fill="#092D2E"/>
<path d="M222.343 108.346L221.448 108.523C220.298 105.605 218.097 100.113 215.201 93.3056L203.621 70.1218H179.968V129.356L195.246 129.375V90.8507L196.131 90.6584C197.374 93.4338 199.8 99.0042 202.623 106.098L213.938 129.361H237.518V70.1218H222.343V108.346Z" fill="#092D2E"/>
<path d="M155.419 0.639435H131.164V59.8732H155.419C173.119 59.8732 183.534 47.6873 183.534 30.2563C183.534 12.8254 173.138 0.639435 155.419 0.639435ZM153.056 45.9965H146.936V14.5211H153.056C162.537 14.5211 167.414 20.3528 167.414 30.2563C167.414 40.1599 162.557 45.9965 153.056 45.9965Z" fill="#092D2E"/>
<path d="M374.824 30.2563C374.824 12.8254 364.423 0.639435 346.709 0.639435H322.454V59.8732H346.709C364.404 59.8732 374.824 47.6873 374.824 30.2563ZM338.226 45.9916V14.5211H344.346C353.827 14.5211 358.709 20.3528 358.709 30.2563C358.709 40.1599 353.847 45.9916 344.346 45.9916H338.226Z" fill="#092D2E"/>
<path d="M146.907 105.827H168.907V92.9753H146.907V83.6732H171.25V70.1415H131.135V129.356H171.406V115.814H146.907V105.827Z" fill="#092D2E"/>
<path d="M446.904 70.1317L441.127 82.3127C439.669 85.7042 437.947 92.0091 437.198 94.8732H436.421C435.643 92.0091 433.867 85.6894 432.429 82.3127L426.725 70.1366H409.265L428.906 109.82V129.37H444.683V110.165L464.389 70.1415V70.1317H446.904Z" fill="#092D2E"/>
<path d="M313.561 0.639435H297.799V59.8732H313.561V0.639435Z" fill="#092D2E"/>
<path d="M382.157 82.7268C388.874 82.7268 393.394 86.1183 395.077 91.4423H411.353C408.756 77.7233 397.416 68.85 382.24 68.85C363.284 68.85 351.704 81.381 351.704 100C351.704 116.499 360.603 130.623 375.646 130.623C384.476 130.623 391.315 127.073 393.375 117.939H394.177V129.361H409.959V96.3521H382.285V107.108H394.202L393.942 108.035C392.587 113.28 388.209 117.096 381.585 117.096C372.608 117.096 367.828 109.992 367.828 99.6648C367.824 88.238 373.674 82.7268 382.157 82.7268Z" fill="#092D2E"/>
<path d="M268.27 22.719C265.697 30.4437 263.809 36.5761 263.036 39.1296H262.258C261.475 36.5761 259.562 30.4387 257.028 22.9014L249.308 0.649292H232.871L254.352 59.8831H270.946L292.427 0.649292H275.99L268.27 22.719Z" fill="#092D2E"/>
<path d="M263.592 105.827H285.592V92.9753H263.592V83.6732H287.931V70.1415H247.83H247.811V129.356H288.087V115.814H263.592V105.827Z" fill="#092D2E"/>
<path d="M204.452 0.639435L182.14 59.8732H198.944L202.726 49.6246H222.866L226.643 59.8732H243.423L221.076 0.639435H204.452ZM207.598 36.4578V36.4282C209.643 30.493 211.551 22.8275 212.353 19.5246H213.131C213.933 22.8176 215.861 30.4387 217.901 36.4578H207.598Z" fill="#092D2E"/>
</svg>
