<?xml version="1.0" encoding="UTF-8"?>
<svg id="Layer_2" xmlns="http://www.w3.org/2000/svg" viewBox="0 0 577.27 74.39">
  <defs>
    <style>
      .cls-1 {
        fill: #febe10;
      }

      .cls-2 {
        fill: #a6a8ab;
      }

      .cls-3 {
        fill: #008ca3;
      }
    </style>
  </defs>
  <g id="Layer_1-2" data-name="Layer_1">
    <g>
      <g>
        <path class="cls-2" d="M268.02,63.02l1.72-.46,13.35-3.58c4.01-1.07,5.18,2.77.87,3.92l-9.68,2.59-2.16.58c.1.32,1.13,2.13,1.3,2.41.69,1.13,1.94,1.89,3.37,1.89,1.54,0,2.96-.87,3.56-2.26l.1-.24c1.16-2.95,4.9-1.49,3.74,1.47-1.19,3.04-4.13,5.04-7.4,5.04s-5.96-1.89-7.22-4.62c-.17-.36-1.21-2.26-1.32-2.65-3.34.9-4.59-2.93-.8-3.94l.59-.16Z"/>
        <path class="cls-3" d="M283.12,26.96s-.01-.06-.02-.1c-.03-.09-.07-.18-.13-.26-.02-.03-.04-.05-.06-.07-.05-.05-.1-.09-.16-.12-.11-.07-.25-.11-.4-.11h-5.31l.06-.63,1.15-12.1-5.72,10.47-.42.77s0-.04,0-.04l-3.35,6.16c-.28.52.09,1.15.69,1.15h5.31l-.06.63-1.15,12.1,5.72-10.47.42-.77s0,.04,0,.04l3.03-5.57.32-.59c.04-.06.06-.13.08-.2,0-.03.01-.07.02-.1,0-.07,0-.13,0-.2"/>
        <path class="cls-1" d="M300.1,25.91c0-.06,0-.12-.01-.18v-.12s0-.05,0-.05c-.01-.22-.02-.45-.04-.67,0-.06-.01-.13-.02-.19v-.12s-.02-.07-.02-.07c-.02-.21-.04-.41-.07-.62,0-.07-.02-.13-.03-.2l-.02-.12v-.06c-.04-.21-.07-.41-.1-.61,0-.06-.02-.12-.03-.18l-.02-.11c-.04-.23-.08-.46-.13-.69-.01-.06-.02-.11-.04-.17l-.02-.1c-.05-.23-.1-.46-.16-.69-.01-.05-.03-.1-.04-.15l-.03-.09c-.06-.24-.13-.47-.2-.71-.01-.05-.03-.09-.04-.14l-.03-.09-.03-.09c-.06-.18-.11-.36-.17-.54l-.15-.44h0c-2.62-7.27-8.58-12.87-16.02-15.04l-.06-.02h-.04c-.53-.16-1.04-.29-1.54-.4h-.05c-.53-.12-1.07-.22-1.61-.3h-.11s-.07-.02-.07-.02c-.44-.06-.91-.11-1.38-.15h-.06c-.1-.01-.19-.02-.29-.03-.6-.04-1.1-.06-1.57-.06h-.02c-.48,0-.98.02-1.57.06-.1,0-.2.01-.29.02h-.06c-.47.04-.94.09-1.38.15h-.07s-.11.02-.11.02c-.54.08-1.08.17-1.61.29h0s-.03,0-.03,0c-.51.11-1.02.24-1.55.39h-.04s-.06.03-.06.03c-10.27,2.99-17.44,12.54-17.44,23.24,0,3.46.6,6.32,2,9.57,1.5,3.49,3.86,6.63,6.8,9.07.58.72,1.05,1.39,1.44,2.04.74,1.26,2.41,2.24,3.79,2.24.71,0,1.27-.27,1.59-.76.43-.65.37-1.59-.16-2.8-.88-2.01-1.95-3.07-3.3-4.42-.72-.71-1.53-1.52-2.45-2.61-2.02-2.37-3.43-5.24-4.09-8.28-.61-2.8-.59-5.71.04-8.41,1.03-4.4,3.63-8.31,7.31-11.01.34-.25.66-.47.97-.67.07-.04.13-.08.2-.12l.1-.06c.36-.22.69-.41.99-.58.07-.04.15-.08.22-.11l.13-.07c.4-.2.71-.35,1.01-.48.08-.04.17-.07.26-.1l.16-.06c.32-.13.67-.27,1.01-.39.1-.03.2-.06.29-.09l.19-.06c.33-.1.66-.21,1-.29.12-.03.23-.05.35-.08.07-.02.15-.03.22-.05l.13-.03c.29-.06.56-.12.83-.17.16-.03.31-.04.47-.06l.25-.03.24-.03c.2-.03.41-.06.62-.07.47-.04.95-.05,1.31-.06.06,0,.11,0,.17,0,.05,0,.09,0,.14,0s.09,0,.14,0c.06,0,.11,0,.17,0,.36,0,.84.02,1.31.06.21.02.41.05.62.08l.24.03.25.03c.16.02.32.04.47.06.28.05.54.11.83.17l.13.03c.07.02.15.03.22.05.12.02.24.05.35.08.34.09.67.19,1,.29l.19.06c.1.03.2.06.29.09.34.12.69.26,1.01.39l.16.06c.09.03.17.07.25.1.3.13.61.28,1.01.48l.13.07c.07.04.15.07.22.11.3.16.63.35.99.58l.11.07c.07.04.13.08.2.12.32.2.63.42.97.67,3.38,2.47,5.88,6.03,7.04,10,.11.38.21.77.3,1.17.01.06.02.12.04.17l.03.13c.06.28.11.58.16.88.03.17.05.34.07.5.02.19.04.37.06.56v.05c.19,1.98.08,3.99-.35,5.95-.66,3.04-2.07,5.9-4.09,8.28l-.09.1-.07.08-.43.5h.01c-.68.76-1.29,1.38-1.85,1.93-.63.63-1.18,1.18-1.69,1.79-1.55,1.88-2.51,3.36-3.14,5.81q-.37,1.42-2.34,1.95l-13.71,3.67c-1.96.52-2.68,1.9-2.53,3.04.16,1.24,1.27,2.1,2.7,2.1.36,0,.74-.05,1.12-.16l15.44-4.14c3.88-1.04,4.17-2.25,4.46-4.9l.02-.16c.26-2.31.68-2.75,1.69-3.82.36-.38.81-.85,1.33-1.5,3.59-2.97,6.23-6.89,7.63-11.33.03-.08.06-.18.08-.27l.04-.11.04-.13c.03-.1.06-.2.09-.3.61-2.08.89-4.15.89-6.5,0-.34,0-.68-.02-1.02"/>
      </g>
      <g>
        <path class="cls-3" d="M46.86,1.56c.82.88,1.23,1.97,1.23,3.29v47.93c0,1.43-.48,2.62-1.44,3.58s-2.15,1.44-3.58,1.44c-.77,0-1.52-.12-2.26-.37s-1.27-.59-1.6-1.03L9.04,18.09v35.11c0,1.32-.43,2.41-1.27,3.29-.85.88-1.96,1.32-3.33,1.32s-2.38-.44-3.21-1.32c-.82-.88-1.23-1.97-1.23-3.29V5.26c0-1.42.48-2.62,1.44-3.58C2.4.73,3.59.25,5.02.25c.82,0,1.63.16,2.43.49.79.33,1.38.77,1.77,1.32l29.93,38.15V4.85c0-1.32.42-2.41,1.27-3.29.85-.88,1.93-1.32,3.25-1.32s2.38.44,3.21,1.32Z"/>
        <path class="cls-3" d="M94.09,49.78c.96.96,1.44,2.07,1.44,3.33,0,1.37-.48,2.49-1.44,3.37-.96.88-2.15,1.32-3.58,1.32h-27.54c-1.43,0-2.62-.48-3.58-1.44-.96-.96-1.44-2.15-1.44-3.58V5.26c0-1.42.48-2.62,1.44-3.58.96-.96,2.15-1.44,3.58-1.44h27.54c1.43,0,2.62.45,3.58,1.36.96.9,1.44,2.07,1.44,3.49s-.47,2.48-1.4,3.33c-.93.85-2.14,1.27-3.62,1.27h-22.28v13.98h18.58c1.43,0,2.62.45,3.58,1.36.96.9,1.44,2.07,1.44,3.49s-.47,2.48-1.4,3.33c-.93.85-2.14,1.27-3.62,1.27h-18.58v15.21h22.28c1.43,0,2.62.48,3.58,1.44Z"/>
        <path class="cls-3" d="M145.44,50.23c.66.88.99,1.89.99,3.04,0,1.43-.52,2.6-1.56,3.54-1.04.93-2.17,1.4-3.37,1.4-1.59,0-2.93-.71-4.03-2.14l-14.63-19.48-14.22,19.32c-1.1,1.54-2.47,2.3-4.11,2.3-1.21,0-2.25-.44-3.12-1.32-.88-.88-1.32-1.89-1.32-3.04s.41-2.33,1.23-3.37l15.87-21.46-15.87-21.05c-.71-.88-1.07-1.86-1.07-2.96,0-1.37.52-2.55,1.56-3.54,1.04-.99,2.19-1.48,3.45-1.48,1.59,0,2.93.71,4.03,2.14l14.47,19.24,14.14-18.83c.55-.77,1.18-1.36,1.89-1.77.71-.41,1.42-.62,2.14-.62,1.21,0,2.27.48,3.21,1.44.93.96,1.4,2.01,1.4,3.17,0,1.04-.36,2.03-1.07,2.96l-16.03,21.13,16.03,21.38Z"/>
        <path class="cls-3" d="M195.75,1.56c.93.88,1.4,2.03,1.4,3.45s-.47,2.56-1.4,3.41c-.93.85-2.14,1.27-3.62,1.27h-12.91v43.08c0,1.43-.52,2.62-1.56,3.58-1.04.96-2.33,1.44-3.86,1.44s-2.8-.48-3.78-1.44c-.99-.96-1.48-2.15-1.48-3.58V9.7h-12.91c-1.48,0-2.69-.44-3.62-1.32-.93-.88-1.4-2.03-1.4-3.45s.48-2.49,1.44-3.37c.96-.88,2.15-1.32,3.58-1.32h36.5c1.48,0,2.68.44,3.62,1.32Z"/>
        <path class="cls-3" d="M250.14,1.48c1.01.93,1.52,2.06,1.52,3.37,0,.71-.16,1.45-.49,2.22l-20.31,47.52c-.49,1.04-1.18,1.84-2.06,2.38-.88.55-1.81.82-2.8.82-.93-.05-1.8-.34-2.59-.86-.8-.52-1.41-1.27-1.85-2.26l-20.31-47.68c-.27-.55-.41-1.23-.41-2.06,0-1.48.55-2.67,1.64-3.58,1.1-.9,2.22-1.36,3.37-1.36.93,0,1.81.27,2.63.82.82.55,1.45,1.34,1.89,2.38l16.53,38.89,15.13-38.89c.44-.99,1.07-1.75,1.89-2.3.82-.55,1.7-.82,2.63-.82,1.37,0,2.56.47,3.58,1.4Z"/>
      </g>
      <g>
        <path class="cls-3" d="M341.74,49.53c.96.9,1.44,2.07,1.44,3.49s-.48,2.51-1.44,3.41c-.96.9-2.15,1.36-3.58,1.36h-26.72c-1.43,0-2.62-.48-3.58-1.44-.96-.96-1.44-2.15-1.44-3.58V5.26c0-1.42.49-2.62,1.48-3.58.99-.96,2.25-1.44,3.78-1.44,1.37,0,2.55.48,3.54,1.44.99.96,1.48,2.15,1.48,3.58v42.92h21.46c1.43,0,2.62.45,3.58,1.36Z"/>
        <path class="cls-3" d="M382.23,1.56c.93.88,1.4,2.03,1.4,3.45s-.47,2.56-1.4,3.41c-.93.85-2.14,1.27-3.62,1.27h-12.91v43.08c0,1.43-.52,2.62-1.56,3.58-1.04.96-2.33,1.44-3.86,1.44s-2.8-.48-3.78-1.44c-.99-.96-1.48-2.15-1.48-3.58V9.7h-12.91c-1.48,0-2.69-.44-3.62-1.32-.93-.88-1.4-2.03-1.4-3.45s.48-2.49,1.44-3.37c.96-.88,2.15-1.32,3.58-1.32h36.5c1.48,0,2.68.44,3.62,1.32Z"/>
      </g>
      <g>
        <path class="cls-1" d="M415.38,45.34c.47.49.7,1.06.7,1.72,0,.69-.23,1.26-.7,1.69-.47.43-1.07.65-1.79.65h-18.09c-.69,0-1.28-.24-1.77-.73-.49-.49-.73-1.07-.73-1.77V15.49c0-.69.24-1.28.73-1.77.48-.48,1.07-.73,1.77-.73h18.09c.73,0,1.33.23,1.79.68.47.45.7,1.04.7,1.77s-.23,1.26-.7,1.69c-.47.43-1.07.65-1.79.65h-15.44v10.61h13.1c.73,0,1.33.23,1.79.68.47.45.7,1.02.7,1.72,0,.73-.23,1.3-.7,1.72-.47.42-1.07.62-1.79.62h-13.1v11.49h15.44c.73,0,1.33.24,1.79.73Z"/>
        <path class="cls-1" d="M449.88,13.65c.42.43.62.98.62,1.64v31.56c0,.73-.23,1.33-.7,1.82-.47.49-1.07.73-1.79.73-.38,0-.75-.06-1.12-.18-.36-.12-.65-.3-.86-.55l-20.43-26.62v25.06c0,.66-.22,1.21-.65,1.64-.43.43-.98.65-1.64.65s-1.2-.22-1.61-.65c-.42-.43-.62-.98-.62-1.64V15.49c0-.73.23-1.33.7-1.79.47-.47,1.05-.7,1.74-.7.42,0,.81.08,1.2.23.38.16.68.37.88.65l20.38,26.67V15.28c0-.66.22-1.2.65-1.64s.98-.65,1.64-.65,1.2.22,1.61.65Z"/>
        <path class="cls-1" d="M479.95,45.34c.47.49.7,1.06.7,1.72,0,.69-.23,1.26-.7,1.69-.47.43-1.07.65-1.79.65h-18.09c-.69,0-1.28-.24-1.77-.73-.49-.49-.73-1.07-.73-1.77V15.49c0-.69.24-1.28.73-1.77.48-.48,1.07-.73,1.77-.73h18.09c.73,0,1.33.23,1.79.68.47.45.7,1.04.7,1.77s-.23,1.26-.7,1.69c-.47.43-1.07.65-1.79.65h-15.44v10.61h13.1c.73,0,1.33.23,1.79.68.47.45.7,1.02.7,1.72,0,.73-.23,1.3-.7,1.72-.47.42-1.07.62-1.79.62h-13.1v11.49h15.44c.73,0,1.33.24,1.79.73Z"/>
        <path class="cls-1" d="M514.19,46.14c.21.36.31.74.31,1.12,0,.73-.23,1.27-.7,1.61-.47.35-1.03.52-1.69.52s-1.21-.14-1.66-.42c-1.04-.59-1.89-1.54-2.55-2.86-.66-1.32-.99-3.26-.99-5.82,0-1.73-.52-3.02-1.56-3.85-1.04-.83-2.39-1.25-4.06-1.25h-10.5v11.7c0,.73-.21,1.33-.62,1.79-.42.47-.95.7-1.61.7-.8,0-1.48-.24-2.05-.73-.57-.49-.86-1.07-.86-1.77V15.49c0-.69.24-1.28.73-1.77.48-.48,1.07-.73,1.77-.73h14.61c1.87,0,3.59.46,5.15,1.38,1.56.92,2.81,2.18,3.74,3.8.94,1.61,1.4,3.42,1.4,5.43s-.52,3.75-1.56,5.43c-1.04,1.68-2.37,2.94-4,3.77,1.28.66,2.3,1.58,3.04,2.76.75,1.18,1.15,2.55,1.22,4.11.14,1.98.29,3.32.47,4.03.17.71.55,1.22,1.14,1.53.35.24.62.55.83.91ZM505.12,29.84c.78-.62,1.41-1.46,1.9-2.52.48-1.06.73-2.24.73-3.56,0-1.66-.51-3.08-1.53-4.24-1.02-1.16-2.26-1.74-3.72-1.74h-11.7v13.1h11.86c.87-.07,1.69-.42,2.47-1.04Z"/>
        <path class="cls-1" d="M547.39,30.99c.47.49.7,1.08.7,1.77v11.7c0,.94-.42,1.66-1.25,2.18-1.59,1.04-3.35,1.85-5.25,2.42-1.91.57-3.87.86-5.88.86-3.47,0-6.65-.83-9.54-2.5-2.89-1.66-5.17-3.93-6.84-6.79s-2.5-6.01-2.5-9.44.83-6.58,2.5-9.44,3.94-5.12,6.84-6.79c2.89-1.66,6.07-2.5,9.54-2.5,1.73,0,3.41.19,5.02.57,1.61.38,3.06.95,4.34,1.72.42.24.73.54.94.88.21.35.31.73.31,1.14,0,.69-.23,1.29-.7,1.79-.47.5-1.03.75-1.69.75-.52,0-.97-.12-1.35-.36-2.25-1.04-4.54-1.56-6.86-1.56-2.5,0-4.78.61-6.84,1.82-2.06,1.21-3.69,2.88-4.89,4.99-1.2,2.11-1.79,4.44-1.79,6.97s.6,4.84,1.79,6.94,2.83,3.76,4.89,4.99c2.06,1.23,4.34,1.85,6.84,1.85,1.18,0,2.42-.14,3.72-.42,1.3-.28,2.42-.64,3.35-1.09v-8.27h-6.29c-.69,0-1.28-.23-1.77-.7-.49-.47-.73-1.05-.73-1.74,0-.73.24-1.33.73-1.79.49-.47,1.07-.7,1.77-.7h9.15c.69,0,1.27.24,1.74.73Z"/>
        <path class="cls-1" d="M576.8,16.9l-11.18,15.75v14.25c0,.69-.23,1.28-.7,1.77-.47.49-1.03.73-1.69.73-.69,0-1.28-.24-1.77-.73-.49-.49-.73-1.07-.73-1.77v-14.66l-11.13-15.03c-.49-.62-.73-1.25-.73-1.87,0-.69.28-1.28.83-1.77.55-.48,1.16-.73,1.82-.73.8,0,1.47.38,2.03,1.14l9.78,13.52,9.41-13.47c.55-.8,1.25-1.2,2.08-1.2.66,0,1.23.24,1.72.73.49.49.73,1.08.73,1.77,0,.52-.16,1.04-.47,1.56Z"/>
      </g>
    </g>
  </g>
</svg>