<?xml version="1.0" encoding="UTF-8"?> <svg xmlns="http://www.w3.org/2000/svg" xmlns:xlink="http://www.w3.org/1999/xlink" id="Layer_1" data-name="Layer 1" viewBox="0 0 442 161.27"><defs><style>.cls-1{fill:url(#linear-gradient);}.cls-2{fill:url(#linear-gradient-2);}.cls-3{fill:url(#linear-gradient-3);}.cls-4{fill:url(#linear-gradient-4);}.cls-5{fill:url(#linear-gradient-5);}.cls-6{fill:url(#linear-gradient-6);}.cls-7{fill:url(#linear-gradient-7);}.cls-8{fill:url(#linear-gradient-8);}.cls-9{fill:url(#linear-gradient-9);}.cls-10{fill:url(#linear-gradient-10);}.cls-11{fill:url(#linear-gradient-11);}.cls-12{fill:url(#linear-gradient-12);}.cls-13{fill:url(#linear-gradient-13);}.cls-14{fill:url(#linear-gradient-14);}.cls-15{fill:url(#linear-gradient-15);}.cls-16{fill:url(#linear-gradient-16);}.cls-17{fill:url(#linear-gradient-17);}.cls-18{fill:url(#linear-gradient-18);}.cls-19{fill:url(#linear-gradient-19);}.cls-20{fill:url(#linear-gradient-20);}.cls-21{fill:#5d892b;}.cls-22{fill:#ec7518;}</style><linearGradient id="linear-gradient" x1="67.22" y1="-31.95" x2="154.55" y2="25.38" gradientUnits="userSpaceOnUse"><stop offset="0" stop-color="#f7931e"></stop><stop offset="1" stop-color="#e25813"></stop></linearGradient><linearGradient id="linear-gradient-2" x1="56.76" y1="-16.02" x2="144.09" y2="41.32" xlink:href="#linear-gradient"></linearGradient><linearGradient id="linear-gradient-3" x1="69.87" y1="-35.99" x2="157.2" y2="21.34" xlink:href="#linear-gradient"></linearGradient><linearGradient id="linear-gradient-4" x1="53.83" y1="-11.56" x2="141.17" y2="45.77" xlink:href="#linear-gradient"></linearGradient><linearGradient id="linear-gradient-5" x1="40.05" y1="9.44" x2="127.38" y2="66.77" xlink:href="#linear-gradient"></linearGradient><linearGradient id="linear-gradient-6" x1="46.08" y1="0.24" x2="133.41" y2="57.58" xlink:href="#linear-gradient"></linearGradient><linearGradient id="linear-gradient-7" x1="55.81" y1="-14.58" x2="143.15" y2="42.75" xlink:href="#linear-gradient"></linearGradient><linearGradient id="linear-gradient-8" x1="33.71" y1="19.09" x2="121.04" y2="76.42" xlink:href="#linear-gradient"></linearGradient><linearGradient id="linear-gradient-9" x1="38.03" y1="12.51" x2="125.37" y2="69.84" xlink:href="#linear-gradient"></linearGradient><linearGradient id="linear-gradient-10" x1="19.62" y1="40.55" x2="106.96" y2="97.88" xlink:href="#linear-gradient"></linearGradient><linearGradient id="linear-gradient-11" x1="26.09" y1="30.69" x2="113.43" y2="88.02" xlink:href="#linear-gradient"></linearGradient><linearGradient id="linear-gradient-12" x1="18.6" y1="42.11" x2="105.93" y2="99.45" xlink:href="#linear-gradient"></linearGradient><linearGradient id="linear-gradient-13" x1="8.06" y1="58.16" x2="95.39" y2="115.5" xlink:href="#linear-gradient"></linearGradient><linearGradient id="linear-gradient-14" x1="3.1" y1="65.72" x2="90.43" y2="123.06" xlink:href="#linear-gradient"></linearGradient><linearGradient id="linear-gradient-15" x1="-1.39" y1="72.55" x2="85.95" y2="129.89" xlink:href="#linear-gradient"></linearGradient><linearGradient id="linear-gradient-16" x1="-10.51" y1="86.45" x2="76.82" y2="143.78" xlink:href="#linear-gradient"></linearGradient><linearGradient id="linear-gradient-17" x1="-5.43" y1="78.71" x2="81.91" y2="136.04" xlink:href="#linear-gradient"></linearGradient><linearGradient id="linear-gradient-18" x1="-19.8" y1="100.6" x2="67.53" y2="157.93" xlink:href="#linear-gradient"></linearGradient><linearGradient id="linear-gradient-19" x1="-20.11" y1="101.07" x2="67.22" y2="158.41" xlink:href="#linear-gradient"></linearGradient><linearGradient id="linear-gradient-20" x1="-32.78" y1="120.37" x2="54.56" y2="177.7" xlink:href="#linear-gradient"></linearGradient></defs><path class="cls-1" d="M128.69,2.6c4.88-1.15,9.82,4,8,8.84-1.35,4.78-8,6.26-11.39,2.76C121.45,10.72,123.55,3.47,128.69,2.6Z"></path><path class="cls-2" d="M91.24,0c5.07-.58,9.08,5.58,6.53,10-2.11,4.67-9.43,4.91-11.94.48C83,6.38,86.26.18,91.24,0Z"></path><path class="cls-3" d="M164.65,19.46c4.74-.31,8.48,5.08,6.48,9.41-1.64,4.81-8.81,5.78-11.75,1.66C155.92,26.43,159.22,19.28,164.65,19.46Z"></path><path class="cls-4" d="M125.43,24.74c6.94,1.07,10.3,10.4,5.58,15.63-4.15,5.51-13.76,4.24-16.28-2.22C111.37,31.43,118.1,22.9,125.43,24.74Z"></path><path class="cls-5" d="M55.7,12.62c5.25.17,8.24,7.12,4.74,11-3,4.27-10.6,2.72-11.79-2.36A6.83,6.83,0,0,1,55.7,12.62Z"></path><path class="cls-6" d="M95.84,22.75c7.23.21,11.73,9.57,7.22,15.29-3.85,6-13.86,5.16-16.7-1.33C82.86,30.39,88.67,21.83,95.84,22.75Z"></path><path class="cls-7" d="M149.17,37c8.38-.49,13.22,11.18,6.81,16.69-4.59,4.91-13.79,2.88-15.89-3.51C137.41,44.19,142.64,36.76,149.17,37Z"></path><path class="cls-8" d="M66.63,32c8.51-1.73,14.85,9.59,8.92,15.92C71.18,53.67,60.88,51.84,59,44.87,57.33,39.43,60.73,32.78,66.63,32Z"></path><path class="cls-9" d="M117.9,51.28a12.31,12.31,0,0,1,9.67,13.34c-.56,6.86-7.72,12.19-14.46,10.71-6.58-1-11.27-8.13-9.71-14.58A12.31,12.31,0,0,1,117.9,51.28Z"></path><path class="cls-10" d="M25.41,38.09c9.15-1.55,10.25,13.72,1.15,13.66C18,52.59,16.91,38.69,25.41,38.09Z"></path><path class="cls-11" d="M82.67,55.8C93,55.07,99.25,69.1,91.81,76.32c-5.55,6.48-17.29,4.36-20.23-3.64C68.09,65.13,74.4,55.65,82.67,55.8Z"></path><path class="cls-12" d="M47.54,50.85c6.37.33,10.89,7.78,8.09,13.55C53.22,70.72,44,72.27,39.57,67.16,33.41,61.2,39.05,49.61,47.54,50.85Z"></path><path class="cls-13" d="M65,82.2c8.23.84,13.36,11.11,9,18.16-3.88,7.52-15.6,8.45-20.47,1.45C46.59,93.78,54.59,80.11,65,82.2Z"></path><path class="cls-14" d="M33.13,76.56C42,75,47.71,87.69,40.64,93.32c-4.38,4.19-12.42,2.79-15-2.72C22.33,85,26.62,77,33.13,76.56Z"></path><path class="cls-15" d="M8.76,72.72c8.76-1.14,9.83,13.3,1.15,13.67C1,87.63-.17,72.93,8.76,72.72Z"></path><path class="cls-16" d="M33,104.94c7.34.14,11.82,9.57,7.28,15.36-4,6.06-14.32,4.93-16.9-1.86C20.32,112.13,26.09,104.12,33,104.94Z"></path><path class="cls-17" d="M67.77,114.67c9-.49,15.6,10.33,10.84,18.06-4,8.23-17.07,8.29-21.24.2C52.56,125.38,58.82,114.37,67.77,114.67Z"></path><path class="cls-18" d="M5.33,111.34c4.95-1.22,10,4,7.94,8.9-1.32,5.2-9,6.22-11.94,1.88C-1.66,118.43.71,112.23,5.33,111.34Z"></path><path class="cls-19" d="M42.82,132c7.11.58,11.12,9.75,6.67,15.37-4,6.2-14.58,4.79-17-2.17C29.7,138.68,35.83,130.78,42.82,132Z"></path><path class="cls-20" d="M18.17,147.84c4.78-1,9.34,4.12,7.61,8.74-1.24,5.13-8.75,6.34-11.78,2.17C10.83,155,13.3,148.48,18.17,147.84Z"></path><path class="cls-21" d="M92.83,91.27H121.7v6.37H111.21v33h-7.89v-33H92.83Z"></path><path class="cls-21" d="M142.22,91.27c9.47,0,14.21,5.47,14.21,12.07,0,4.79-2.65,9.64-9,11.33l9.41,16h-9.13l-8.69-15.34h-3.72v15.34h-7.89V91.27Zm-.28,6.54h-6.6v11.56h6.6c4.4,0,6.37-2.31,6.37-5.86S146.34,97.81,141.94,97.81Z"></path><path class="cls-21" d="M163.48,91.27h7.89v24.36c0,5.41,2.93,8.23,7.95,8.23s8-2.82,8-8.23V91.27h7.95v24.3c0,10.38-7.45,15.45-16.07,15.45s-15.73-5.07-15.73-15.45Z"></path><path class="cls-21" d="M210.78,113.77H224v-6.26H202.89v23.12h22.83V124.2H210.78Z"></path><path class="cls-22" d="M202.89,91.22v6.42h22.83V91.22Z"></path><path class="cls-21" d="M260.79,115.52h-6.6v15.11H246.3V91.27h14.49c9.47,0,14.21,5.36,14.21,12.18C275,109.43,270.94,115.52,260.79,115.52Zm-.34-6.37c4.46,0,6.43-2.2,6.43-5.7s-2-5.75-6.43-5.75h-6.26v11.45Z"></path><path class="cls-21" d="M298.85,131a19.78,19.78,0,0,1-20.19-20.18c0-11.79,9.08-20.13,20.19-20.13S319,99.05,319,110.84A19.7,19.7,0,0,1,298.85,131Zm0-7.05c7.1,0,12-5.13,12-13.13s-4.91-13-12-13-12.07,5-12.07,13S291.69,124,298.85,124Z"></path><path class="cls-21" d="M322.19,91.27h8.46l6.93,30.56,8-30.56h8.79l7.56,30.39,7-30.39h8.52l-11,39.36h-9.3l-7.39-28-7.72,28-9.25.05Z"></path><path class="cls-21" d="M427.34,91.27c9.47,0,14.21,5.47,14.21,12.07,0,4.79-2.65,9.64-9,11.33l9.42,16h-9.13l-8.69-15.34h-3.72v15.34h-7.89V91.27Zm-.28,6.54h-6.6v11.56h6.6c4.4,0,6.37-2.31,6.37-5.86S431.46,97.81,427.06,97.81Z"></path><polygon class="cls-21" points="390.47 113.77 403.72 113.77 403.72 107.51 393.99 107.51 390.47 107.51 382.57 107.51 382.57 130.63 405.41 130.63 405.41 124.2 390.47 124.2 390.47 113.77"></polygon><polygon class="cls-22" points="382.57 91.22 382.57 97.64 390.47 97.64 393.99 97.64 405.41 97.64 405.41 91.22 382.57 91.22"></polygon></svg> 